<?xml version="1.0" encoding="utf-8" standalone="no"?>
<!DOCTYPE svg PUBLIC "-//W3C//DTD SVG 1.1//EN"
  "http://www.w3.org/Graphics/SVG/1.1/DTD/svg11.dtd">
<!-- Created with matplotlib (https://matplotlib.org/) -->
<svg height="810pt" version="1.1" viewBox="0 0 720 810" width="720pt" xmlns="http://www.w3.org/2000/svg" xmlns:xlink="http://www.w3.org/1999/xlink">
 <metadata>
  <rdf:RDF xmlns:cc="http://creativecommons.org/ns#" xmlns:dc="http://purl.org/dc/elements/1.1/" xmlns:rdf="http://www.w3.org/1999/02/22-rdf-syntax-ns#">
   <cc:Work>
    <dc:type rdf:resource="http://purl.org/dc/dcmitype/StillImage"/>
    <dc:date>2021-07-08T13:19:58.893616</dc:date>
    <dc:format>image/svg+xml</dc:format>
    <dc:creator>
     <cc:Agent>
      <dc:title>Matplotlib v3.3.1, https://matplotlib.org/</dc:title>
     </cc:Agent>
    </dc:creator>
   </cc:Work>
  </rdf:RDF>
 </metadata>
 <defs>
  <style type="text/css">*{stroke-linecap:butt;stroke-linejoin:round;}</style>
 </defs>
 <g id="figure_1">
  <g id="patch_1">
   <path d="M 0 810 
L 720 810 
L 720 0 
L 0 0 
z
" style="fill:#ffffff;"/>
  </g>
  <g id="axes_1">
   <g id="patch_2">
    <path d="M 108 720.9 
L 698.4 720.9 
L 698.4 56.7 
L 108 56.7 
z
" style="fill:#ffffff;"/>
   </g>
   <g id="matplotlib.axis_1">
    <g id="xtick_1">
     <g id="line2d_1">
      <defs>
       <path d="M 0 0 
L 0 3.5 
" id="m3053c3b5c1" style="stroke:#000000;stroke-width:0.8;"/>
      </defs>
      <g>
       <use style="stroke:#000000;stroke-width:0.8;" x="167.04" xlink:href="#m3053c3b5c1" y="720.9"/>
      </g>
     </g>
     <g id="text_1">
      <!-- −2 -->
      <g transform="translate(155.983359 739.297656)scale(0.15 -0.15)">
       <defs>
        <path d="M 10.59375 35.5 
L 73.1875 35.5 
L 73.1875 27.203125 
L 10.59375 27.203125 
z
" id="DejaVuSans-8722"/>
        <path d="M 19.1875 8.296875 
L 53.609375 8.296875 
L 53.609375 0 
L 7.328125 0 
L 7.328125 8.296875 
Q 12.9375 14.109375 22.625 23.890625 
Q 32.328125 33.6875 34.8125 36.53125 
Q 39.546875 41.84375 41.421875 45.53125 
Q 43.3125 49.21875 43.3125 52.78125 
Q 43.3125 58.59375 39.234375 62.25 
Q 35.15625 65.921875 28.609375 65.921875 
Q 23.96875 65.921875 18.8125 64.3125 
Q 13.671875 62.703125 7.8125 59.421875 
L 7.8125 69.390625 
Q 13.765625 71.78125 18.9375 73 
Q 24.125 74.21875 28.421875 74.21875 
Q 39.75 74.21875 46.484375 68.546875 
Q 53.21875 62.890625 53.21875 53.421875 
Q 53.21875 48.921875 51.53125 44.890625 
Q 49.859375 40.875 45.40625 35.40625 
Q 44.1875 33.984375 37.640625 27.21875 
Q 31.109375 20.453125 19.1875 8.296875 
z
" id="DejaVuSans-50"/>
       </defs>
       <use xlink:href="#DejaVuSans-8722"/>
       <use x="83.789062" xlink:href="#DejaVuSans-50"/>
      </g>
     </g>
    </g>
    <g id="xtick_2">
     <g id="line2d_2">
      <g>
       <use style="stroke:#000000;stroke-width:0.8;" x="285.12" xlink:href="#m3053c3b5c1" y="720.9"/>
      </g>
     </g>
     <g id="text_2">
      <!-- −1 -->
      <g transform="translate(274.063359 739.297656)scale(0.15 -0.15)">
       <defs>
        <path d="M 12.40625 8.296875 
L 28.515625 8.296875 
L 28.515625 63.921875 
L 10.984375 60.40625 
L 10.984375 69.390625 
L 28.421875 72.90625 
L 38.28125 72.90625 
L 38.28125 8.296875 
L 54.390625 8.296875 
L 54.390625 0 
L 12.40625 0 
z
" id="DejaVuSans-49"/>
       </defs>
       <use xlink:href="#DejaVuSans-8722"/>
       <use x="83.789062" xlink:href="#DejaVuSans-49"/>
      </g>
     </g>
    </g>
    <g id="xtick_3">
     <g id="line2d_3">
      <g>
       <use style="stroke:#000000;stroke-width:0.8;" x="403.2" xlink:href="#m3053c3b5c1" y="720.9"/>
      </g>
     </g>
     <g id="text_3">
      <!-- 0 -->
      <g transform="translate(398.428125 739.297656)scale(0.15 -0.15)">
       <defs>
        <path d="M 31.78125 66.40625 
Q 24.171875 66.40625 20.328125 58.90625 
Q 16.5 51.421875 16.5 36.375 
Q 16.5 21.390625 20.328125 13.890625 
Q 24.171875 6.390625 31.78125 6.390625 
Q 39.453125 6.390625 43.28125 13.890625 
Q 47.125 21.390625 47.125 36.375 
Q 47.125 51.421875 43.28125 58.90625 
Q 39.453125 66.40625 31.78125 66.40625 
z
M 31.78125 74.21875 
Q 44.046875 74.21875 50.515625 64.515625 
Q 56.984375 54.828125 56.984375 36.375 
Q 56.984375 17.96875 50.515625 8.265625 
Q 44.046875 -1.421875 31.78125 -1.421875 
Q 19.53125 -1.421875 13.0625 8.265625 
Q 6.59375 17.96875 6.59375 36.375 
Q 6.59375 54.828125 13.0625 64.515625 
Q 19.53125 74.21875 31.78125 74.21875 
z
" id="DejaVuSans-48"/>
       </defs>
       <use xlink:href="#DejaVuSans-48"/>
      </g>
     </g>
    </g>
    <g id="xtick_4">
     <g id="line2d_4">
      <g>
       <use style="stroke:#000000;stroke-width:0.8;" x="521.28" xlink:href="#m3053c3b5c1" y="720.9"/>
      </g>
     </g>
     <g id="text_4">
      <!-- 1 -->
      <g transform="translate(516.508125 739.297656)scale(0.15 -0.15)">
       <use xlink:href="#DejaVuSans-49"/>
      </g>
     </g>
    </g>
    <g id="xtick_5">
     <g id="line2d_5">
      <g>
       <use style="stroke:#000000;stroke-width:0.8;" x="639.36" xlink:href="#m3053c3b5c1" y="720.9"/>
      </g>
     </g>
     <g id="text_5">
      <!-- 2 -->
      <g transform="translate(634.588125 739.297656)scale(0.15 -0.15)">
       <use xlink:href="#DejaVuSans-50"/>
      </g>
     </g>
    </g>
    <g id="text_6">
     <!-- $q_x$ -->
     <g transform="translate(389.7 765.3625)scale(0.25 -0.25)">
      <defs>
       <path d="M 41.703125 8.203125 
Q 38.09375 3.46875 33.171875 1.015625 
Q 28.265625 -1.421875 22.3125 -1.421875 
Q 14.015625 -1.421875 9.296875 4.171875 
Q 4.59375 9.765625 4.59375 19.578125 
Q 4.59375 27.484375 7.5 34.859375 
Q 10.40625 42.234375 15.828125 48.09375 
Q 19.34375 51.90625 23.90625 53.953125 
Q 28.46875 56 33.5 56 
Q 39.546875 56 43.453125 53.609375 
Q 47.359375 51.21875 49.125 46.390625 
L 50.6875 54.59375 
L 59.71875 54.59375 
L 45.125 -20.609375 
L 36.078125 -20.609375 
z
M 13.921875 20.90625 
Q 13.921875 13.671875 16.9375 9.890625 
Q 19.96875 6.109375 25.6875 6.109375 
Q 34.1875 6.109375 40.1875 14.234375 
Q 46.1875 22.359375 46.1875 33.984375 
Q 46.1875 41.015625 43.078125 44.75 
Q 39.984375 48.484375 34.1875 48.484375 
Q 29.9375 48.484375 26.3125 46.5 
Q 22.703125 44.53125 20.015625 40.71875 
Q 17.1875 36.71875 15.546875 31.34375 
Q 13.921875 25.984375 13.921875 20.90625 
z
" id="DejaVuSans-Oblique-113"/>
       <path d="M 60.015625 54.6875 
L 34.90625 27.875 
L 50.296875 0 
L 39.984375 0 
L 28.421875 21.6875 
L 8.296875 0 
L -2.59375 0 
L 24.3125 28.8125 
L 10.015625 54.6875 
L 20.3125 54.6875 
L 30.8125 34.90625 
L 49.125 54.6875 
z
" id="DejaVuSans-Oblique-120"/>
      </defs>
      <use xlink:href="#DejaVuSans-Oblique-113"/>
      <use transform="translate(63.476562 -16.40625)scale(0.7)" xlink:href="#DejaVuSans-Oblique-120"/>
     </g>
    </g>
   </g>
   <g id="matplotlib.axis_2">
    <g id="ytick_1">
     <g id="line2d_6">
      <defs>
       <path d="M 0 0 
L -3.5 0 
" id="mc9d1a51517" style="stroke:#000000;stroke-width:0.8;"/>
      </defs>
      <g>
       <use style="stroke:#000000;stroke-width:0.8;" x="108" xlink:href="#mc9d1a51517" y="654.48"/>
      </g>
     </g>
     <g id="text_7">
      <!-- −2 -->
      <g transform="translate(78.886719 660.178828)scale(0.15 -0.15)">
       <use xlink:href="#DejaVuSans-8722"/>
       <use x="83.789062" xlink:href="#DejaVuSans-50"/>
      </g>
     </g>
    </g>
    <g id="ytick_2">
     <g id="line2d_7">
      <g>
       <use style="stroke:#000000;stroke-width:0.8;" x="108" xlink:href="#mc9d1a51517" y="521.64"/>
      </g>
     </g>
     <g id="text_8">
      <!-- −1 -->
      <g transform="translate(78.886719 527.338828)scale(0.15 -0.15)">
       <use xlink:href="#DejaVuSans-8722"/>
       <use x="83.789062" xlink:href="#DejaVuSans-49"/>
      </g>
     </g>
    </g>
    <g id="ytick_3">
     <g id="line2d_8">
      <g>
       <use style="stroke:#000000;stroke-width:0.8;" x="108" xlink:href="#mc9d1a51517" y="388.8"/>
      </g>
     </g>
     <g id="text_9">
      <!-- 0 -->
      <g transform="translate(91.45625 394.498828)scale(0.15 -0.15)">
       <use xlink:href="#DejaVuSans-48"/>
      </g>
     </g>
    </g>
    <g id="ytick_4">
     <g id="line2d_9">
      <g>
       <use style="stroke:#000000;stroke-width:0.8;" x="108" xlink:href="#mc9d1a51517" y="255.96"/>
      </g>
     </g>
     <g id="text_10">
      <!-- 1 -->
      <g transform="translate(91.45625 261.658828)scale(0.15 -0.15)">
       <use xlink:href="#DejaVuSans-49"/>
      </g>
     </g>
    </g>
    <g id="ytick_5">
     <g id="line2d_10">
      <g>
       <use style="stroke:#000000;stroke-width:0.8;" x="108" xlink:href="#mc9d1a51517" y="123.12"/>
      </g>
     </g>
     <g id="text_11">
      <!-- 2 -->
      <g transform="translate(91.45625 128.818828)scale(0.15 -0.15)">
       <use xlink:href="#DejaVuSans-50"/>
      </g>
     </g>
    </g>
    <g id="text_12">
     <!-- $q_y$ -->
     <g transform="translate(67.136719 402.3)rotate(-90)scale(0.25 -0.25)">
      <defs>
       <path d="M 24.8125 -5.078125 
Q 18.5625 -15.578125 14.625 -18.1875 
Q 10.6875 -20.796875 4.59375 -20.796875 
L -2.484375 -20.796875 
L -0.984375 -13.28125 
L 4.203125 -13.28125 
Q 7.953125 -13.28125 10.59375 -11.234375 
Q 13.234375 -9.1875 16.5 -3.21875 
L 19.28125 2 
L 7.171875 54.6875 
L 16.703125 54.6875 
L 25.78125 12.796875 
L 50.875 54.6875 
L 60.296875 54.6875 
z
" id="DejaVuSans-Oblique-121"/>
      </defs>
      <use xlink:href="#DejaVuSans-Oblique-113"/>
      <use transform="translate(63.476562 -16.40625)scale(0.7)" xlink:href="#DejaVuSans-Oblique-121"/>
     </g>
    </g>
   </g>
   <g id="PathCollection_1">
    <path clip-path="url(#pfb1ee4e5ed)" d="M 137.343974 686.011169 
L 137.343974 686.011169 
L 137.343974 686.011169 
L 137.343974 686.011169 
z
" style="fill:#fcfbfd;stroke:#fcfbfd;"/>
    <path clip-path="url(#pfb1ee4e5ed)" d="M 502.025249 686.01149 
L 502.025249 686.01149 
L 502.025249 686.01149 
L 502.025249 686.01149 
z
" style="fill:#fcfbfd;stroke:#fcfbfd;"/>
    <path clip-path="url(#pfb1ee4e5ed)" d="M 534.967052 700.737551 
L 543.802689 686.01149 
L 534.967052 671.285428 
L 526.131415 686.01149 
z
" style="fill:#552890;stroke:#552890;"/>
    <path clip-path="url(#pfb1ee4e5ed)" d="M 567.908855 686.01149 
L 567.908855 686.01149 
L 567.908855 686.01149 
L 567.908855 686.01149 
z
" style="fill:#fcfbfd;stroke:#fcfbfd;"/>
    <path clip-path="url(#pfb1ee4e5ed)" d="M 600.850658 686.01149 
L 600.850658 686.01149 
L 600.850658 686.01149 
L 600.850658 686.01149 
z
" style="fill:#fcfbfd;stroke:#fcfbfd;"/>
    <path clip-path="url(#pfb1ee4e5ed)" d="M 137.343994 648.859733 
L 137.343994 648.859733 
L 137.343994 648.859733 
L 137.343994 648.859733 
z
" style="fill:#fcfbfd;stroke:#fcfbfd;"/>
    <path clip-path="url(#pfb1ee4e5ed)" d="M 469.083466 648.860054 
L 469.083466 648.860054 
L 469.083466 648.860054 
L 469.083466 648.860054 
z
" style="fill:#fcfbfd;stroke:#fcfbfd;"/>
    <path clip-path="url(#pfb1ee4e5ed)" d="M 502.025269 648.860054 
L 502.025269 648.860054 
L 502.025269 648.860054 
L 502.025269 648.860054 
z
" style="fill:#fcfbfd;stroke:#fcfbfd;"/>
    <path clip-path="url(#pfb1ee4e5ed)" d="M 534.967072 648.860054 
L 534.967072 648.860054 
L 534.967072 648.860054 
L 534.967072 648.860054 
z
" style="fill:#fcfbfd;stroke:#fcfbfd;"/>
    <path clip-path="url(#pfb1ee4e5ed)" d="M 137.344014 611.708297 
L 137.344014 611.708297 
L 137.344014 611.708297 
L 137.344014 611.708297 
z
" style="fill:#fcfbfd;stroke:#fcfbfd;"/>
    <path clip-path="url(#pfb1ee4e5ed)" d="M 436.141683 611.708617 
L 436.141683 611.708617 
L 436.141683 611.708617 
L 436.141683 611.708617 
z
" style="fill:#fcfbfd;stroke:#fcfbfd;"/>
    <path clip-path="url(#pfb1ee4e5ed)" d="M 469.083486 626.903743 
L 478.200561 611.708617 
L 469.083486 596.513492 
L 459.96641 611.708617 
z
" style="fill:#4c1788;stroke:#4c1788;"/>
    <path clip-path="url(#pfb1ee4e5ed)" d="M 502.025289 611.708617 
L 502.025289 611.708617 
L 502.025289 611.708617 
L 502.025289 611.708617 
z
" style="fill:#fcfbfd;stroke:#fcfbfd;"/>
    <path clip-path="url(#pfb1ee4e5ed)" d="M 403.1999 574.557181 
L 403.1999 574.557181 
L 403.1999 574.557181 
L 403.1999 574.557181 
z
" style="fill:#fcfbfd;stroke:#fcfbfd;"/>
    <path clip-path="url(#pfb1ee4e5ed)" d="M 436.141703 574.557181 
L 436.141703 574.557181 
L 436.141703 574.557181 
L 436.141703 574.557181 
z
" style="fill:#fcfbfd;stroke:#fcfbfd;"/>
    <path clip-path="url(#pfb1ee4e5ed)" d="M 469.083506 574.557181 
L 469.083506 574.557181 
L 469.083506 574.557181 
L 469.083506 574.557181 
z
" style="fill:#fcfbfd;stroke:#fcfbfd;"/>
    <path clip-path="url(#pfb1ee4e5ed)" d="M 403.19992 553.217133 
L 412.686753 537.405745 
L 403.19992 521.594357 
L 393.713087 537.405745 
z
" style="fill:#3f007d;stroke:#3f007d;"/>
    <path clip-path="url(#pfb1ee4e5ed)" d="M 436.141723 537.405745 
L 436.141723 537.405745 
L 436.141723 537.405745 
L 436.141723 537.405745 
z
" style="fill:#fcfbfd;stroke:#fcfbfd;"/>
    <path clip-path="url(#pfb1ee4e5ed)" d="M 469.083526 537.405745 
L 469.083526 537.405745 
L 469.083526 537.405745 
L 469.083526 537.405745 
z
" style="fill:#fcfbfd;stroke:#fcfbfd;"/>
    <path clip-path="url(#pfb1ee4e5ed)" d="M 403.19994 500.254309 
L 403.19994 500.254309 
L 403.19994 500.254309 
L 403.19994 500.254309 
z
" style="fill:#fcfbfd;stroke:#fcfbfd;"/>
    <path clip-path="url(#pfb1ee4e5ed)" d="M 436.141743 500.254309 
L 436.141743 500.254309 
L 436.141743 500.254309 
L 436.141743 500.254309 
z
" style="fill:#fcfbfd;stroke:#fcfbfd;"/>
    <path clip-path="url(#pfb1ee4e5ed)" d="M 370.258157 463.102872 
L 370.258157 463.102872 
L 370.258157 463.102872 
L 370.258157 463.102872 
z
" style="fill:#fcfbfd;stroke:#fcfbfd;"/>
    <path clip-path="url(#pfb1ee4e5ed)" d="M 403.19996 463.102872 
L 403.19996 463.102872 
L 403.19996 463.102872 
L 403.19996 463.102872 
z
" style="fill:#fcfbfd;stroke:#fcfbfd;"/>
    <path clip-path="url(#pfb1ee4e5ed)" d="M 436.141763 463.102872 
L 436.141763 463.102872 
L 436.141763 463.102872 
L 436.141763 463.102872 
z
" style="fill:#fcfbfd;stroke:#fcfbfd;"/>
    <path clip-path="url(#pfb1ee4e5ed)" d="M 370.258177 425.951436 
L 370.258177 425.951436 
L 370.258177 425.951436 
L 370.258177 425.951436 
z
" style="fill:#fcfbfd;stroke:#fcfbfd;"/>
    <path clip-path="url(#pfb1ee4e5ed)" d="M 403.19998 425.951436 
L 403.19998 425.951436 
L 403.19998 425.951436 
L 403.19998 425.951436 
z
" style="fill:#fcfbfd;stroke:#fcfbfd;"/>
    <path clip-path="url(#pfb1ee4e5ed)" d="M 436.141783 425.951436 
L 436.141783 425.951436 
L 436.141783 425.951436 
L 436.141783 425.951436 
z
" style="fill:#fcfbfd;stroke:#fcfbfd;"/>
    <path clip-path="url(#pfb1ee4e5ed)" d="M 370.258197 388.8 
L 370.258197 388.8 
L 370.258197 388.8 
L 370.258197 388.8 
z
" style="fill:#fcfbfd;stroke:#fcfbfd;"/>
    <path clip-path="url(#pfb1ee4e5ed)" d="M 403.2 388.8 
L 403.2 388.8 
L 403.2 388.8 
L 403.2 388.8 
z
" style="fill:#fcfbfd;stroke:#fcfbfd;"/>
    <path clip-path="url(#pfb1ee4e5ed)" d="M 436.141803 388.8 
L 436.141803 388.8 
L 436.141803 388.8 
L 436.141803 388.8 
z
" style="fill:#fcfbfd;stroke:#fcfbfd;"/>
    <path clip-path="url(#pfb1ee4e5ed)" d="M 370.258217 351.648564 
L 370.258217 351.648564 
L 370.258217 351.648564 
L 370.258217 351.648564 
z
" style="fill:#fcfbfd;stroke:#fcfbfd;"/>
    <path clip-path="url(#pfb1ee4e5ed)" d="M 403.20002 351.648564 
L 403.20002 351.648564 
L 403.20002 351.648564 
L 403.20002 351.648564 
z
" style="fill:#fcfbfd;stroke:#fcfbfd;"/>
    <path clip-path="url(#pfb1ee4e5ed)" d="M 436.141823 351.648564 
L 436.141823 351.648564 
L 436.141823 351.648564 
L 436.141823 351.648564 
z
" style="fill:#fcfbfd;stroke:#fcfbfd;"/>
    <path clip-path="url(#pfb1ee4e5ed)" d="M 370.258237 314.497128 
L 370.258237 314.497128 
L 370.258237 314.497128 
L 370.258237 314.497128 
z
" style="fill:#fcfbfd;stroke:#fcfbfd;"/>
    <path clip-path="url(#pfb1ee4e5ed)" d="M 403.20004 314.497128 
L 403.20004 314.497128 
L 403.20004 314.497128 
L 403.20004 314.497128 
z
" style="fill:#fcfbfd;stroke:#fcfbfd;"/>
    <path clip-path="url(#pfb1ee4e5ed)" d="M 436.141843 314.497128 
L 436.141843 314.497128 
L 436.141843 314.497128 
L 436.141843 314.497128 
z
" style="fill:#fcfbfd;stroke:#fcfbfd;"/>
    <path clip-path="url(#pfb1ee4e5ed)" d="M 403.20006 277.345691 
L 403.20006 277.345691 
L 403.20006 277.345691 
L 403.20006 277.345691 
z
" style="fill:#fcfbfd;stroke:#fcfbfd;"/>
    <path clip-path="url(#pfb1ee4e5ed)" d="M 436.141863 277.345691 
L 436.141863 277.345691 
L 436.141863 277.345691 
L 436.141863 277.345691 
z
" style="fill:#fcfbfd;stroke:#fcfbfd;"/>
    <path clip-path="url(#pfb1ee4e5ed)" d="M 403.20008 256.005643 
L 412.686913 240.194255 
L 403.20008 224.382867 
L 393.713247 240.194255 
z
" style="fill:#3f007d;stroke:#3f007d;"/>
    <path clip-path="url(#pfb1ee4e5ed)" d="M 436.141883 240.194255 
L 436.141883 240.194255 
L 436.141883 240.194255 
L 436.141883 240.194255 
z
" style="fill:#fcfbfd;stroke:#fcfbfd;"/>
    <path clip-path="url(#pfb1ee4e5ed)" d="M 469.083686 240.194255 
L 469.083686 240.194255 
L 469.083686 240.194255 
L 469.083686 240.194255 
z
" style="fill:#fcfbfd;stroke:#fcfbfd;"/>
    <path clip-path="url(#pfb1ee4e5ed)" d="M 403.2001 203.042819 
L 403.2001 203.042819 
L 403.2001 203.042819 
L 403.2001 203.042819 
z
" style="fill:#fcfbfd;stroke:#fcfbfd;"/>
    <path clip-path="url(#pfb1ee4e5ed)" d="M 436.141903 203.042819 
L 436.141903 203.042819 
L 436.141903 203.042819 
L 436.141903 203.042819 
z
" style="fill:#fcfbfd;stroke:#fcfbfd;"/>
    <path clip-path="url(#pfb1ee4e5ed)" d="M 469.083706 203.042819 
L 469.083706 203.042819 
L 469.083706 203.042819 
L 469.083706 203.042819 
z
" style="fill:#fcfbfd;stroke:#fcfbfd;"/>
    <path clip-path="url(#pfb1ee4e5ed)" d="M 137.344255 165.891062 
L 137.344255 165.891062 
L 137.344255 165.891062 
L 137.344255 165.891062 
z
" style="fill:#fcfbfd;stroke:#fcfbfd;"/>
    <path clip-path="url(#pfb1ee4e5ed)" d="M 436.141923 165.891383 
L 436.141923 165.891383 
L 436.141923 165.891383 
L 436.141923 165.891383 
z
" style="fill:#fcfbfd;stroke:#fcfbfd;"/>
    <path clip-path="url(#pfb1ee4e5ed)" d="M 469.083726 181.086508 
L 478.200802 165.891383 
L 469.083726 150.696257 
L 459.966651 165.891383 
z
" style="fill:#4c1788;stroke:#4c1788;"/>
    <path clip-path="url(#pfb1ee4e5ed)" d="M 502.025529 165.891383 
L 502.025529 165.891383 
L 502.025529 165.891383 
L 502.025529 165.891383 
z
" style="fill:#fcfbfd;stroke:#fcfbfd;"/>
    <path clip-path="url(#pfb1ee4e5ed)" d="M 137.344275 128.739626 
L 137.344275 128.739626 
L 137.344275 128.739626 
L 137.344275 128.739626 
z
" style="fill:#fcfbfd;stroke:#fcfbfd;"/>
    <path clip-path="url(#pfb1ee4e5ed)" d="M 469.083746 128.739946 
L 469.083746 128.739946 
L 469.083746 128.739946 
L 469.083746 128.739946 
z
" style="fill:#fcfbfd;stroke:#fcfbfd;"/>
    <path clip-path="url(#pfb1ee4e5ed)" d="M 502.025549 128.739946 
L 502.025549 128.739946 
L 502.025549 128.739946 
L 502.025549 128.739946 
z
" style="fill:#fcfbfd;stroke:#fcfbfd;"/>
    <path clip-path="url(#pfb1ee4e5ed)" d="M 534.967353 128.739946 
L 534.967353 128.739946 
L 534.967353 128.739946 
L 534.967353 128.739946 
z
" style="fill:#fcfbfd;stroke:#fcfbfd;"/>
    <path clip-path="url(#pfb1ee4e5ed)" d="M 137.344295 91.588189 
L 137.344295 91.588189 
L 137.344295 91.588189 
L 137.344295 91.588189 
z
" style="fill:#fcfbfd;stroke:#fcfbfd;"/>
    <path clip-path="url(#pfb1ee4e5ed)" d="M 502.025569 91.58851 
L 502.025569 91.58851 
L 502.025569 91.58851 
L 502.025569 91.58851 
z
" style="fill:#fcfbfd;stroke:#fcfbfd;"/>
    <path clip-path="url(#pfb1ee4e5ed)" d="M 534.967373 106.314572 
L 543.803009 91.58851 
L 534.967373 76.862449 
L 526.131736 91.58851 
z
" style="fill:#552890;stroke:#552890;"/>
    <path clip-path="url(#pfb1ee4e5ed)" d="M 567.909176 91.58851 
L 567.909176 91.58851 
L 567.909176 91.58851 
L 567.909176 91.58851 
z
" style="fill:#fcfbfd;stroke:#fcfbfd;"/>
    <path clip-path="url(#pfb1ee4e5ed)" d="M 600.850979 91.58851 
L 600.850979 91.58851 
L 600.850979 91.58851 
L 600.850979 91.58851 
z
" style="fill:#fcfbfd;stroke:#fcfbfd;"/>
   </g>
   <g id="PathCollection_2">
    <path clip-path="url(#pfb1ee4e5ed)" d="M 137.343974 693.577301 
C 139.350536 693.577301 141.275184 692.780086 142.694037 691.361232 
C 144.112891 689.942379 144.910106 688.017731 144.910106 686.011169 
C 144.910106 684.004607 144.112891 682.079959 142.694037 680.661106 
C 141.275184 679.242253 139.350536 678.445037 137.343974 678.445037 
C 135.337412 678.445037 133.412764 679.242253 131.993911 680.661106 
C 130.575058 682.079959 129.777842 684.004607 129.777842 686.011169 
C 129.777842 688.017731 130.575058 689.942379 131.993911 691.361232 
C 133.412764 692.780086 135.337412 693.577301 137.343974 693.577301 
z
" style="fill:#fdd3a7;stroke:#fdd3a7;"/>
    <path clip-path="url(#pfb1ee4e5ed)" d="M 502.025249 692.890026 
C 503.849458 692.890026 505.599198 692.16526 506.889108 690.875349 
C 508.179019 689.585439 508.903785 687.835699 508.903785 686.01149 
C 508.903785 684.187281 508.179019 682.437541 506.889108 681.14763 
C 505.599198 679.85772 503.849458 679.132954 502.025249 679.132954 
C 500.20104 679.132954 498.4513 679.85772 497.161389 681.14763 
C 495.871479 682.437541 495.146713 684.187281 495.146713 686.01149 
C 495.146713 687.835699 495.871479 689.585439 497.161389 690.875349 
C 498.4513 692.16526 500.20104 692.890026 502.025249 692.890026 
z
" style="fill:#fee6ce;stroke:#fee6ce;"/>
    <path clip-path="url(#pfb1ee4e5ed)" d="M 534.967052 697.19183 
C 537.932113 697.19183 540.776131 696.013799 542.872746 693.917184 
C 544.969361 691.820569 546.147392 688.976551 546.147392 686.01149 
C 546.147392 683.046429 544.969361 680.20241 542.872746 678.105796 
C 540.776131 676.009181 537.932113 674.83115 534.967052 674.83115 
C 532.001991 674.83115 529.157972 676.009181 527.061358 678.105796 
C 524.964743 680.20241 523.786712 683.046429 523.786712 686.01149 
C 523.786712 688.976551 524.964743 691.820569 527.061358 693.917184 
C 529.157972 696.013799 532.001991 697.19183 534.967052 697.19183 
z
" style="fill:#7f2704;stroke:#7f2704;"/>
    <path clip-path="url(#pfb1ee4e5ed)" d="M 567.908855 693.020392 
C 569.767638 693.020392 571.550539 692.28189 572.864897 690.967532 
C 574.179255 689.653174 574.917757 687.870272 574.917757 686.01149 
C 574.917757 684.152707 574.179255 682.369805 572.864897 681.055448 
C 571.550539 679.74109 569.767638 679.002588 567.908855 679.002588 
C 566.050072 679.002588 564.26717 679.74109 562.952813 681.055448 
C 561.638455 682.369805 560.899953 684.152707 560.899953 686.01149 
C 560.899953 687.870272 561.638455 689.653174 562.952813 690.967532 
C 564.26717 692.28189 566.050072 693.020392 567.908855 693.020392 
z
" style="fill:#fee2c7;stroke:#fee2c7;"/>
    <path clip-path="url(#pfb1ee4e5ed)" d="M 600.850658 692.540903 
C 602.582279 692.540903 604.24321 691.852923 605.467651 690.628482 
C 606.692091 689.404042 607.380072 687.743111 607.380072 686.01149 
C 607.380072 684.279869 606.692091 682.618938 605.467651 681.394497 
C 604.24321 680.170056 602.582279 679.482076 600.850658 679.482076 
C 599.119037 679.482076 597.458106 680.170056 596.233665 681.394497 
C 595.009225 682.618938 594.321244 684.279869 594.321244 686.01149 
C 594.321244 687.743111 595.009225 689.404042 596.233665 690.628482 
C 597.458106 691.852923 599.119037 692.540903 600.850658 692.540903 
z
" style="fill:#feeddb;stroke:#feeddb;"/>
    <path clip-path="url(#pfb1ee4e5ed)" d="M 137.343994 655.957853 
C 139.226438 655.957853 141.032034 655.20995 142.363123 653.878862 
C 143.694212 652.547773 144.442114 650.742176 144.442114 648.859733 
C 144.442114 646.977289 143.694212 645.171693 142.363123 643.840604 
C 141.032034 642.509515 139.226438 641.761613 137.343994 641.761613 
C 135.461551 641.761613 133.655954 642.509515 132.324865 643.840604 
C 130.993777 645.171693 130.245874 646.977289 130.245874 648.859733 
C 130.245874 650.742176 130.993777 652.547773 132.324865 653.878862 
C 133.655954 655.20995 135.461551 655.957853 137.343994 655.957853 
z
" style="fill:#fee0c3;stroke:#fee0c3;"/>
    <path clip-path="url(#pfb1ee4e5ed)" d="M 469.083466 655.738732 
C 470.907713 655.738732 472.657489 655.013951 473.947426 653.724014 
C 475.237363 652.434076 475.962144 650.6843 475.962144 648.860054 
C 475.962144 647.035807 475.237363 645.286031 473.947426 643.996094 
C 472.657489 642.706156 470.907713 641.981375 469.083466 641.981375 
C 467.259219 641.981375 465.509443 642.706156 464.219506 643.996094 
C 462.929569 645.286031 462.204788 647.035807 462.204788 648.860054 
C 462.204788 650.6843 462.929569 652.434076 464.219506 653.724014 
C 465.509443 655.013951 467.259219 655.738732 469.083466 655.738732 
z
" style="fill:#fee6ce;stroke:#fee6ce;"/>
    <path clip-path="url(#pfb1ee4e5ed)" d="M 502.025269 657.082923 
C 504.205999 657.082923 506.297706 656.216509 507.839715 654.6745 
C 509.381724 653.132491 510.248138 651.040784 510.248138 648.860054 
C 510.248138 646.679323 509.381724 644.587616 507.839715 643.045607 
C 506.297706 641.503598 504.205999 640.637185 502.025269 640.637185 
C 499.844539 640.637185 497.752832 641.503598 496.210822 643.045607 
C 494.668813 644.587616 493.8024 646.679323 493.8024 648.860054 
C 493.8024 651.040784 494.668813 653.132491 496.210822 654.6745 
C 497.752832 656.216509 499.844539 657.082923 502.025269 657.082923 
z
" style="fill:#fdb475;stroke:#fdb475;"/>
    <path clip-path="url(#pfb1ee4e5ed)" d="M 534.967072 655.624215 
C 536.760948 655.624215 538.481594 654.9115 539.750056 653.643038 
C 541.018518 652.374576 541.731233 650.65393 541.731233 648.860054 
C 541.731233 647.066177 541.018518 645.345532 539.750056 644.077069 
C 538.481594 642.808607 536.760948 642.095892 534.967072 642.095892 
C 533.173195 642.095892 531.45255 642.808607 530.184088 644.077069 
C 528.915626 645.345532 528.202911 647.066177 528.202911 648.860054 
C 528.202911 650.65393 528.915626 652.374576 530.184088 653.643038 
C 531.45255 654.9115 533.173195 655.624215 534.967072 655.624215 
z
" style="fill:#fee8d2;stroke:#fee8d2;"/>
    <path clip-path="url(#pfb1ee4e5ed)" d="M 137.344014 618.127809 
C 139.046489 618.127809 140.679463 617.451408 141.883295 616.247577 
C 143.087126 615.043746 143.763526 613.410771 143.763526 611.708297 
C 143.763526 610.005822 143.087126 608.372847 141.883295 607.169016 
C 140.679463 605.965185 139.046489 605.288785 137.344014 605.288785 
C 135.64154 605.288785 134.008565 605.965185 132.804734 607.169016 
C 131.600902 608.372847 130.924502 610.005822 130.924502 611.708297 
C 130.924502 613.410771 131.600902 615.043746 132.804734 616.247577 
C 134.008565 617.451408 135.64154 618.127809 137.344014 618.127809 
z
" style="fill:#ffeede;stroke:#ffeede;"/>
    <path clip-path="url(#pfb1ee4e5ed)" d="M 436.141683 618.372259 
C 437.908901 618.372259 439.603977 617.670135 440.853589 616.420523 
C 442.103201 615.170911 442.805324 613.475836 442.805324 611.708617 
C 442.805324 609.941399 442.103201 608.246324 440.853589 606.996712 
C 439.603977 605.747099 437.908901 605.044976 436.141683 605.044976 
C 434.374465 605.044976 432.679389 605.747099 431.429777 606.996712 
C 430.180165 608.246324 429.478042 609.941399 429.478042 611.708617 
C 429.478042 613.475836 430.180165 615.170911 431.429777 616.420523 
C 432.679389 617.670135 434.374465 618.372259 436.141683 618.372259 
z
" style="fill:#feead6;stroke:#feead6;"/>
    <path clip-path="url(#pfb1ee4e5ed)" d="M 469.083486 622.888957 
C 472.048547 622.888957 474.892565 621.710926 476.98918 619.614312 
C 479.085795 617.517697 480.263826 614.673678 480.263826 611.708617 
C 480.263826 608.743557 479.085795 605.899538 476.98918 603.802923 
C 474.892565 601.706309 472.048547 600.528277 469.083486 600.528277 
C 466.118425 600.528277 463.274406 601.706309 461.177792 603.802923 
C 459.081177 605.899538 457.903146 608.743557 457.903146 611.708617 
C 457.903146 614.673678 459.081177 617.517697 461.177792 619.614312 
C 463.274406 621.710926 466.118425 622.888957 469.083486 622.888957 
z
" style="fill:#7f2704;stroke:#7f2704;"/>
    <path clip-path="url(#pfb1ee4e5ed)" d="M 502.025289 618.472653 
C 503.819132 618.472653 505.539746 617.759952 506.808185 616.491513 
C 508.076623 615.223074 508.789325 613.502461 508.789325 611.708617 
C 508.789325 609.914774 508.076623 608.19416 506.808185 606.925722 
C 505.539746 605.657283 503.819132 604.944581 502.025289 604.944581 
C 500.231446 604.944581 498.510832 605.657283 497.242393 606.925722 
C 495.973954 608.19416 495.261253 609.914774 495.261253 611.708617 
C 495.261253 613.502461 495.973954 615.223074 497.242393 616.491513 
C 498.510832 617.759952 500.231446 618.472653 502.025289 618.472653 
z
" style="fill:#fee8d2;stroke:#fee8d2;"/>
    <path clip-path="url(#pfb1ee4e5ed)" d="M 403.1999 580.89886 
C 404.881733 580.89886 406.494909 580.230661 407.684144 579.041426 
C 408.87338 577.85219 409.541579 576.239014 409.541579 574.557181 
C 409.541579 572.875348 408.87338 571.262172 407.684144 570.072937 
C 406.494909 568.883701 404.881733 568.215502 403.1999 568.215502 
C 401.518067 568.215502 399.904891 568.883701 398.715655 570.072937 
C 397.52642 571.262172 396.85822 572.875348 396.85822 574.557181 
C 396.85822 576.239014 397.52642 577.85219 398.715655 579.041426 
C 399.904891 580.230661 401.518067 580.89886 403.1999 580.89886 
z
" style="fill:#fff0e1;stroke:#fff0e1;"/>
    <path clip-path="url(#pfb1ee4e5ed)" d="M 436.141703 582.021581 
C 438.121285 582.021581 440.020055 581.235084 441.41983 579.835309 
C 442.819606 578.435533 443.606102 576.536763 443.606102 574.557181 
C 443.606102 572.577599 442.819606 570.678829 441.41983 569.279054 
C 440.020055 567.879278 438.121285 567.092782 436.141703 567.092782 
C 434.162121 567.092782 432.263351 567.879278 430.863575 569.279054 
C 429.4638 570.678829 428.677303 572.577599 428.677303 574.557181 
C 428.677303 576.536763 429.4638 578.435533 430.863575 579.835309 
C 432.263351 581.235084 434.162121 582.021581 436.141703 582.021581 
z
" style="fill:#fdd5ad;stroke:#fdd5ad;"/>
    <path clip-path="url(#pfb1ee4e5ed)" d="M 469.083506 581.56559 
C 470.942158 581.56559 472.724934 580.82714 474.039199 579.512874 
C 475.353464 578.198609 476.091914 576.415833 476.091914 574.557181 
C 476.091914 572.698529 475.353464 570.915753 474.039199 569.601488 
C 472.724934 568.287223 470.942158 567.548773 469.083506 567.548773 
C 467.224854 567.548773 465.442078 568.287223 464.127813 569.601488 
C 462.813548 570.915753 462.075097 572.698529 462.075097 574.557181 
C 462.075097 576.415833 462.813548 578.198609 464.127813 579.512874 
C 465.442078 580.82714 467.224854 581.56559 469.083506 581.56559 
z
" style="fill:#fee2c7;stroke:#fee2c7;"/>
    <path clip-path="url(#pfb1ee4e5ed)" d="M 403.19992 544.118607 
C 404.980192 544.118607 406.687788 543.411298 407.94663 542.152455 
C 409.205473 540.893613 409.912782 539.186017 409.912782 537.405745 
C 409.912782 535.625473 409.205473 533.917877 407.94663 532.659034 
C 406.687788 531.400192 404.980192 530.692883 403.19992 530.692883 
C 401.419648 530.692883 399.712052 531.400192 398.453209 532.659034 
C 397.194367 533.917877 396.487057 535.625473 396.487057 537.405745 
C 396.487057 539.186017 397.194367 540.893613 398.453209 542.152455 
C 399.712052 543.411298 401.419648 544.118607 403.19992 544.118607 
z
" style="fill:#fee9d4;stroke:#fee9d4;"/>
    <path clip-path="url(#pfb1ee4e5ed)" d="M 436.141723 545.356227 
C 438.250215 545.356227 440.272633 544.518514 441.763563 543.027585 
C 443.254492 541.536655 444.092205 539.514237 444.092205 537.405745 
C 444.092205 535.297252 443.254492 533.274834 441.763563 531.783905 
C 440.272633 530.292976 438.250215 529.455263 436.141723 529.455263 
C 434.03323 529.455263 432.010812 530.292976 430.519883 531.783905 
C 429.028954 533.274834 428.191241 535.297252 428.191241 537.405745 
C 428.191241 539.514237 429.028954 541.536655 430.519883 543.027585 
C 432.010812 544.518514 434.03323 545.356227 436.141723 545.356227 
z
" style="fill:#fdc28b;stroke:#fdc28b;"/>
    <path clip-path="url(#pfb1ee4e5ed)" d="M 469.083526 543.93477 
C 470.815044 543.93477 472.475876 543.246831 473.700244 542.022463 
C 474.924612 540.798095 475.612551 539.137263 475.612551 537.405745 
C 475.612551 535.674227 474.924612 534.013395 473.700244 532.789027 
C 472.475876 531.564659 470.815044 530.87672 469.083526 530.87672 
C 467.352008 530.87672 465.691176 531.564659 464.466808 532.789027 
C 463.24244 534.013395 462.554501 535.674227 462.554501 537.405745 
C 462.554501 539.137263 463.24244 540.798095 464.466808 542.022463 
C 465.691176 543.246831 467.352008 543.93477 469.083526 543.93477 
z
" style="fill:#feeddb;stroke:#feeddb;"/>
    <path clip-path="url(#pfb1ee4e5ed)" d="M 403.19994 507.41746 
C 405.09963 507.41746 406.921769 506.662705 408.265053 505.319422 
C 409.608336 503.976138 410.363091 502.153999 410.363091 500.254309 
C 410.363091 498.354619 409.608336 496.532479 408.265053 495.189196 
C 406.921769 493.845912 405.09963 493.091157 403.19994 493.091157 
C 401.30025 493.091157 399.478111 493.845912 398.134827 495.189196 
C 396.791543 496.532479 396.036788 498.354619 396.036788 500.254309 
C 396.036788 502.153999 396.791543 503.976138 398.134827 505.319422 
C 399.478111 506.662705 401.30025 507.41746 403.19994 507.41746 
z
" style="fill:#fedebf;stroke:#fedebf;"/>
    <path clip-path="url(#pfb1ee4e5ed)" d="M 436.141743 507.336159 
C 438.019872 507.336159 439.82133 506.58997 441.149367 505.261933 
C 442.477405 503.933895 443.223593 502.132437 443.223593 500.254309 
C 443.223593 498.37618 442.477405 496.574722 441.149367 495.246684 
C 439.82133 493.918647 438.019872 493.172459 436.141743 493.172459 
C 434.263614 493.172459 432.462156 493.918647 431.134119 495.246684 
C 429.806081 496.574722 429.059893 498.37618 429.059893 500.254309 
C 429.059893 502.132437 429.806081 503.933895 431.134119 505.261933 
C 432.462156 506.58997 434.263614 507.336159 436.141743 507.336159 
z
" style="fill:#fee0c3;stroke:#fee0c3;"/>
    <path clip-path="url(#pfb1ee4e5ed)" d="M 370.258157 469.444464 
C 371.939967 469.444464 373.55312 468.776274 374.742339 467.587055 
C 375.931558 466.397836 376.599748 464.784682 376.599748 463.102872 
C 376.599748 461.421063 375.931558 459.807909 374.742339 458.61869 
C 373.55312 457.429471 371.939967 456.761281 370.258157 456.761281 
C 368.576347 456.761281 366.963194 457.429471 365.773974 458.61869 
C 364.584755 459.807909 363.916565 461.421063 363.916565 463.102872 
C 363.916565 464.784682 364.584755 466.397836 365.773974 467.587055 
C 366.963194 468.776274 368.576347 469.444464 370.258157 469.444464 
z
" style="fill:#fff0e1;stroke:#fff0e1;"/>
    <path clip-path="url(#pfb1ee4e5ed)" d="M 403.19996 470.856521 
C 405.256252 470.856521 407.2286 470.039548 408.682617 468.58553 
C 410.136635 467.131512 410.953609 465.159164 410.953609 463.102872 
C 410.953609 461.046581 410.136635 459.074233 408.682617 457.620215 
C 407.2286 456.166197 405.256252 455.349224 403.19996 455.349224 
C 401.143668 455.349224 399.17132 456.166197 397.717302 457.620215 
C 396.263285 459.074233 395.446311 461.046581 395.446311 463.102872 
C 395.446311 465.159164 396.263285 467.131512 397.717302 468.58553 
C 399.17132 470.039548 401.143668 470.856521 403.19996 470.856521 
z
" style="fill:#fdcb9b;stroke:#fdcb9b;"/>
    <path clip-path="url(#pfb1ee4e5ed)" d="M 436.141763 469.866921 
C 437.93561 469.866921 439.656226 469.154218 440.924667 467.885777 
C 442.193108 466.617336 442.905811 464.896719 442.905811 463.102872 
C 442.905811 461.309026 442.193108 459.588409 440.924667 458.319968 
C 439.656226 457.051527 437.93561 456.338824 436.141763 456.338824 
C 434.347916 456.338824 432.6273 457.051527 431.358859 458.319968 
C 430.090418 459.588409 429.377715 461.309026 429.377715 463.102872 
C 429.377715 464.896719 430.090418 466.617336 431.358859 467.885777 
C 432.6273 469.154218 434.347916 469.866921 436.141763 469.866921 
z
" style="fill:#fee8d2;stroke:#fee8d2;"/>
    <path clip-path="url(#pfb1ee4e5ed)" d="M 370.258177 432.40145 
C 371.968741 432.40145 373.609474 431.721836 374.819025 430.512285 
C 376.028577 429.302734 376.708191 427.662 376.708191 425.951436 
C 376.708191 424.240873 376.028577 422.600139 374.819025 421.390588 
C 373.609474 420.181036 371.968741 419.501422 370.258177 419.501422 
C 368.547613 419.501422 366.90688 420.181036 365.697328 421.390588 
C 364.487777 422.600139 363.808163 424.240873 363.808163 425.951436 
C 363.808163 427.662 364.487777 429.302734 365.697328 430.512285 
C 366.90688 431.721836 368.547613 432.40145 370.258177 432.40145 
z
" style="fill:#ffeedd;stroke:#ffeedd;"/>
    <path clip-path="url(#pfb1ee4e5ed)" d="M 403.19998 434.622277 
C 405.499514 434.622277 407.705174 433.708663 409.331191 432.082647 
C 410.957207 430.456631 411.870821 428.25097 411.870821 425.951436 
C 411.870821 423.651902 410.957207 421.446242 409.331191 419.820226 
C 407.705174 418.19421 405.499514 417.280595 403.19998 417.280595 
C 400.900446 417.280595 398.694785 418.19421 397.068769 419.820226 
C 395.442753 421.446242 394.529139 423.651902 394.529139 425.951436 
C 394.529139 428.25097 395.442753 430.456631 397.068769 432.082647 
C 398.694785 433.708663 400.900446 434.622277 403.19998 434.622277 
z
" style="fill:#fd9d53;stroke:#fd9d53;"/>
    <path clip-path="url(#pfb1ee4e5ed)" d="M 436.141783 432.567621 
C 437.896416 432.567621 439.57942 431.870498 440.820132 430.629786 
C 442.060845 429.389073 442.757968 427.706069 442.757968 425.951436 
C 442.757968 424.196803 442.060845 422.5138 440.820132 421.273087 
C 439.57942 420.032374 437.896416 419.335251 436.141783 419.335251 
C 434.38715 419.335251 432.704146 420.032374 431.463434 421.273087 
C 430.222721 422.5138 429.525598 424.196803 429.525598 425.951436 
C 429.525598 427.706069 430.222721 429.389073 431.463434 430.629786 
C 432.704146 431.870498 434.38715 432.567621 436.141783 432.567621 
z
" style="fill:#feebd8;stroke:#feebd8;"/>
    <path clip-path="url(#pfb1ee4e5ed)" d="M 370.258197 395.288955 
C 371.979088 395.288955 373.629727 394.605238 374.846581 393.388384 
C 376.063434 392.17153 376.747152 390.520891 376.747152 388.8 
C 376.747152 387.079109 376.063434 385.42847 374.846581 384.211616 
C 373.629727 382.994762 371.979088 382.311045 370.258197 382.311045 
C 368.537306 382.311045 366.886667 382.994762 365.669813 384.211616 
C 364.452959 385.42847 363.769242 387.079109 363.769242 388.8 
C 363.769242 390.520891 364.452959 392.17153 365.669813 393.388384 
C 366.886667 394.605238 368.537306 395.288955 370.258197 395.288955 
z
" style="fill:#feeddc;stroke:#feeddc;"/>
    <path clip-path="url(#pfb1ee4e5ed)" d="M 403.2 399.98034 
C 406.165061 399.98034 409.00908 398.802309 411.105694 396.705694 
C 413.202309 394.60908 414.38034 391.765061 414.38034 388.8 
C 414.38034 385.834939 413.202309 382.99092 411.105694 380.894306 
C 409.00908 378.797691 406.165061 377.61966 403.2 377.61966 
C 400.234939 377.61966 397.39092 378.797691 395.294306 380.894306 
C 393.197691 382.99092 392.01966 385.834939 392.01966 388.8 
C 392.01966 391.765061 393.197691 394.60908 395.294306 396.705694 
C 397.39092 398.802309 400.234939 399.98034 403.2 399.98034 
z
" style="fill:#7f2704;stroke:#7f2704;"/>
    <path clip-path="url(#pfb1ee4e5ed)" d="M 436.141803 395.371763 
C 437.884655 395.371763 439.556359 394.679321 440.788741 393.446938 
C 442.021124 392.214556 442.713566 390.542852 442.713566 388.8 
C 442.713566 387.057148 442.021124 385.385444 440.788741 384.153062 
C 439.556359 382.920679 437.884655 382.228237 436.141803 382.228237 
C 434.398951 382.228237 432.727247 382.920679 431.494865 384.153062 
C 430.262482 385.385444 429.57004 387.057148 429.57004 388.8 
C 429.57004 390.542852 430.262482 392.214556 431.494865 393.446938 
C 432.727247 394.679321 434.398951 395.371763 436.141803 395.371763 
z
" style="fill:#feecd9;stroke:#feecd9;"/>
    <path clip-path="url(#pfb1ee4e5ed)" d="M 370.258217 358.09839 
C 371.968731 358.09839 373.609417 357.418796 374.818933 356.20928 
C 376.028449 354.999764 376.708043 353.359078 376.708043 351.648564 
C 376.708043 349.93805 376.028449 348.297364 374.818933 347.087848 
C 373.609417 345.878332 371.968731 345.198737 370.258217 345.198737 
C 368.547703 345.198737 366.907017 345.878332 365.697501 347.087848 
C 364.487985 348.297364 363.80839 349.93805 363.80839 351.648564 
C 363.80839 353.359078 364.487985 354.999764 365.697501 356.20928 
C 366.907017 357.418796 368.547703 358.09839 370.258217 358.09839 
z
" style="fill:#ffeedd;stroke:#ffeedd;"/>
    <path clip-path="url(#pfb1ee4e5ed)" d="M 403.20002 360.316337 
C 405.49874 360.316337 407.703621 359.403046 409.329061 357.777605 
C 410.954502 356.152164 411.867794 353.947284 411.867794 351.648564 
C 411.867794 349.349843 410.954502 347.144963 409.329061 345.519522 
C 407.703621 343.894082 405.49874 342.98079 403.20002 342.98079 
C 400.9013 342.98079 398.696419 343.894082 397.070979 345.519522 
C 395.445538 347.144963 394.532247 349.349843 394.532247 351.648564 
C 394.532247 353.947284 395.445538 356.152164 397.070979 357.777605 
C 398.696419 359.403046 400.9013 360.316337 403.20002 360.316337 
z
" style="fill:#fd9d53;stroke:#fd9d53;"/>
    <path clip-path="url(#pfb1ee4e5ed)" d="M 436.141823 358.264972 
C 437.896515 358.264972 439.579576 357.567826 440.82033 356.327071 
C 442.061085 355.086316 442.758232 353.403256 442.758232 351.648564 
C 442.758232 349.893872 442.061085 348.210811 440.82033 346.970056 
C 439.579576 345.729302 437.896515 345.032155 436.141823 345.032155 
C 434.387131 345.032155 432.70407 345.729302 431.463316 346.970056 
C 430.222561 348.210811 429.525415 349.893872 429.525415 351.648564 
C 429.525415 353.403256 430.222561 355.086316 431.463316 356.327071 
C 432.70407 357.567826 434.387131 358.264972 436.141823 358.264972 
z
" style="fill:#feebd8;stroke:#feebd8;"/>
    <path clip-path="url(#pfb1ee4e5ed)" d="M 370.258237 320.838384 
C 371.939958 320.838384 373.553026 320.170229 374.742182 318.981073 
C 375.931338 317.791917 376.599493 316.178848 376.599493 314.497128 
C 376.599493 312.815407 375.931338 311.202339 374.742182 310.013182 
C 373.553026 308.824026 371.939958 308.155871 370.258237 308.155871 
C 368.576516 308.155871 366.963448 308.824026 365.774292 310.013182 
C 364.585136 311.202339 363.916981 312.815407 363.916981 314.497128 
C 363.916981 316.178848 364.585136 317.791917 365.774292 318.981073 
C 366.963448 320.170229 368.576516 320.838384 370.258237 320.838384 
z
" style="fill:#fff0e1;stroke:#fff0e1;"/>
    <path clip-path="url(#pfb1ee4e5ed)" d="M 403.20004 322.249061 
C 405.255877 322.249061 407.227789 321.432268 408.681485 319.978572 
C 410.135181 318.524876 410.951974 316.552964 410.951974 314.497128 
C 410.951974 312.441291 410.135181 310.469379 408.681485 309.015683 
C 407.227789 307.561987 405.255877 306.745194 403.20004 306.745194 
C 401.144203 306.745194 399.172291 307.561987 397.718595 309.015683 
C 396.264899 310.469379 395.448107 312.441291 395.448107 314.497128 
C 395.448107 316.552964 396.264899 318.524876 397.718595 319.978572 
C 399.172291 321.432268 401.144203 322.249061 403.20004 322.249061 
z
" style="fill:#fdcb9b;stroke:#fdcb9b;"/>
    <path clip-path="url(#pfb1ee4e5ed)" d="M 436.141843 321.2617 
C 437.935829 321.2617 439.656579 320.548942 440.925118 319.280403 
C 442.193658 318.011863 442.906416 316.291113 442.906416 314.497128 
C 442.906416 312.703142 442.193658 310.982392 440.925118 309.713852 
C 439.656579 308.445313 437.935829 307.732555 436.141843 307.732555 
C 434.347857 307.732555 432.627107 308.445313 431.358568 309.713852 
C 430.090028 310.982392 429.37727 312.703142 429.37727 314.497128 
C 429.37727 316.291113 430.090028 318.011863 431.358568 319.280403 
C 432.627107 320.548942 434.347857 321.2617 436.141843 321.2617 
z
" style="fill:#fee8d2;stroke:#fee8d2;"/>
    <path clip-path="url(#pfb1ee4e5ed)" d="M 403.20006 284.507605 
C 405.099422 284.507605 406.921246 283.752981 408.264298 282.409929 
C 409.60735 281.066878 410.361974 279.245053 410.361974 277.345691 
C 410.361974 275.44633 409.60735 273.624505 408.264298 272.281453 
C 406.921246 270.938402 405.099422 270.183777 403.20006 270.183777 
C 401.300698 270.183777 399.478874 270.938402 398.135822 272.281453 
C 396.792771 273.624505 396.038146 275.44633 396.038146 277.345691 
C 396.038146 279.245053 396.792771 281.066878 398.135822 282.409929 
C 399.478874 283.752981 401.300698 284.507605 403.20006 284.507605 
z
" style="fill:#fedebf;stroke:#fedebf;"/>
    <path clip-path="url(#pfb1ee4e5ed)" d="M 436.141863 284.428669 
C 438.020291 284.428669 439.822036 283.682361 441.150284 282.354113 
C 442.478533 281.025864 443.22484 279.224119 443.22484 277.345691 
C 443.22484 275.467264 442.478533 273.665519 441.150284 272.33727 
C 439.822036 271.009021 438.020291 270.262714 436.141863 270.262714 
C 434.263436 270.262714 432.461691 271.009021 431.133442 272.33727 
C 429.805193 273.665519 429.058886 275.467264 429.058886 277.345691 
C 429.058886 279.224119 429.805193 281.025864 431.133442 282.354113 
C 432.461691 283.682361 434.263436 284.428669 436.141863 284.428669 
z
" style="fill:#fee0c3;stroke:#fee0c3;"/>
    <path clip-path="url(#pfb1ee4e5ed)" d="M 403.20008 246.906127 
C 404.980089 246.906127 406.687434 246.198922 407.94609 244.940265 
C 409.204747 243.681609 409.911952 241.974264 409.911952 240.194255 
C 409.911952 238.414246 409.204747 236.706901 407.94609 235.448245 
C 406.687434 234.189588 404.980089 233.482383 403.20008 233.482383 
C 401.420071 233.482383 399.712727 234.189588 398.45407 235.448245 
C 397.195413 236.706901 396.488208 238.414246 396.488208 240.194255 
C 396.488208 241.974264 397.195413 243.681609 398.45407 244.940265 
C 399.712727 246.198922 401.420071 246.906127 403.20008 246.906127 
z
" style="fill:#fee9d4;stroke:#fee9d4;"/>
    <path clip-path="url(#pfb1ee4e5ed)" d="M 436.141883 248.149203 
C 438.25156 248.149203 440.275114 247.31102 441.766881 245.819253 
C 443.258648 244.327486 444.096831 242.303932 444.096831 240.194255 
C 444.096831 238.084578 443.258648 236.061024 441.766881 234.569257 
C 440.275114 233.07749 438.25156 232.239307 436.141883 232.239307 
C 434.032206 232.239307 432.008652 233.07749 430.516885 234.569257 
C 429.025118 236.061024 428.186935 238.084578 428.186935 240.194255 
C 428.186935 242.303932 429.025118 244.327486 430.516885 245.819253 
C 432.008652 247.31102 434.032206 248.149203 436.141883 248.149203 
z
" style="fill:#fdc189;stroke:#fdc189;"/>
    <path clip-path="url(#pfb1ee4e5ed)" d="M 469.083686 246.724095 
C 470.81542 246.724095 472.47646 246.03607 473.700981 244.811549 
C 474.925501 243.587029 475.613526 241.925989 475.613526 240.194255 
C 475.613526 238.462521 474.925501 236.801482 473.700981 235.576961 
C 472.47646 234.35244 470.81542 233.664415 469.083686 233.664415 
C 467.351952 233.664415 465.690913 234.35244 464.466392 235.576961 
C 463.241871 236.801482 462.553846 238.462521 462.553846 240.194255 
C 462.553846 241.925989 463.241871 243.587029 464.466392 244.811549 
C 465.690913 246.03607 467.351952 246.724095 469.083686 246.724095 
z
" style="fill:#feeddb;stroke:#feeddb;"/>
    <path clip-path="url(#pfb1ee4e5ed)" d="M 403.2001 209.38366 
C 404.881711 209.38366 406.494673 208.715549 407.683752 207.52647 
C 408.87283 206.337392 409.540941 204.72443 409.540941 203.042819 
C 409.540941 201.361208 408.87283 199.748246 407.683752 198.559167 
C 406.494673 197.370089 404.881711 196.701978 403.2001 196.701978 
C 401.51849 196.701978 399.905527 197.370089 398.716449 198.559167 
C 397.52737 199.748246 396.859259 201.361208 396.859259 203.042819 
C 396.859259 204.72443 397.52737 206.337392 398.716449 207.52647 
C 399.905527 208.715549 401.51849 209.38366 403.2001 209.38366 
z
" style="fill:#fff0e1;stroke:#fff0e1;"/>
    <path clip-path="url(#pfb1ee4e5ed)" d="M 436.141903 210.504251 
C 438.120698 210.504251 440.018713 209.718068 441.417933 208.318848 
C 442.817152 206.919629 443.603336 205.021614 443.603336 203.042819 
C 443.603336 201.064024 442.817152 199.166009 441.417933 197.766789 
C 440.018713 196.36757 438.120698 195.581387 436.141903 195.581387 
C 434.163108 195.581387 432.265093 196.36757 430.865874 197.766789 
C 429.466655 199.166009 428.680471 201.064024 428.680471 203.042819 
C 428.680471 205.021614 429.466655 206.919629 430.865874 208.318848 
C 432.265093 209.718068 434.163108 210.504251 436.141903 210.504251 
z
" style="fill:#fdd5ad;stroke:#fdd5ad;"/>
    <path clip-path="url(#pfb1ee4e5ed)" d="M 469.083706 210.052954 
C 470.942816 210.052954 472.726031 209.314322 474.04062 207.999733 
C 475.355209 206.685144 476.093841 204.901928 476.093841 203.042819 
C 476.093841 201.183709 475.355209 199.400494 474.04062 198.085905 
C 472.726031 196.771316 470.942816 196.032684 469.083706 196.032684 
C 467.224597 196.032684 465.441381 196.771316 464.126792 198.085905 
C 462.812203 199.400494 462.073571 201.183709 462.073571 203.042819 
C 462.073571 204.901928 462.812203 206.685144 464.126792 207.999733 
C 465.441381 209.314322 467.224597 210.052954 469.083706 210.052954 
z
" style="fill:#fee2c7;stroke:#fee2c7;"/>
    <path clip-path="url(#pfb1ee4e5ed)" d="M 137.344255 172.311666 
C 139.047019 172.311666 140.680271 171.63515 141.884307 170.431114 
C 143.088343 169.227078 143.764858 167.593826 143.764858 165.891062 
C 143.764858 164.188298 143.088343 162.555045 141.884307 161.351009 
C 140.680271 160.146973 139.047019 159.470458 137.344255 159.470458 
C 135.641491 159.470458 134.008238 160.146973 132.804202 161.351009 
C 131.600166 162.555045 130.923651 164.188298 130.923651 165.891062 
C 130.923651 167.593826 131.600166 169.227078 132.804202 170.431114 
C 134.008238 171.63515 135.641491 172.311666 137.344255 172.311666 
z
" style="fill:#ffeede;stroke:#ffeede;"/>
    <path clip-path="url(#pfb1ee4e5ed)" d="M 436.141923 172.553616 
C 437.908768 172.553616 439.603486 171.851641 440.852833 170.602293 
C 442.102181 169.352945 442.804156 167.658228 442.804156 165.891383 
C 442.804156 164.124538 442.102181 162.42982 440.852833 161.180472 
C 439.603486 159.931124 437.908768 159.22915 436.141923 159.22915 
C 434.375078 159.22915 432.680361 159.931124 431.431013 161.180472 
C 430.181665 162.42982 429.47969 164.124538 429.47969 165.891383 
C 429.47969 167.658228 430.181665 169.352945 431.431013 170.602293 
C 432.680361 171.851641 434.375078 172.553616 436.141923 172.553616 
z
" style="fill:#feead6;stroke:#feead6;"/>
    <path clip-path="url(#pfb1ee4e5ed)" d="M 469.083726 176.639906 
C 471.934268 176.639906 474.668443 175.507374 476.68408 173.491737 
C 478.699718 171.476099 479.83225 168.741924 479.83225 165.891383 
C 479.83225 163.040841 478.699718 160.306666 476.68408 158.291029 
C 474.668443 156.275391 471.934268 155.142859 469.083726 155.142859 
C 466.233185 155.142859 463.49901 156.275391 461.483372 158.291029 
C 459.467735 160.306666 458.335203 163.040841 458.335203 165.891383 
C 458.335203 168.741924 459.467735 171.476099 461.483372 173.491737 
C 463.49901 175.507374 466.233185 176.639906 469.083726 176.639906 
z
" style="fill:#a03403;stroke:#a03403;"/>
    <path clip-path="url(#pfb1ee4e5ed)" d="M 502.025529 172.656993 
C 503.81979 172.656993 505.540804 171.944126 506.809538 170.675392 
C 508.078272 169.406658 508.79114 167.685643 508.79114 165.891383 
C 508.79114 164.097122 508.078272 162.376108 506.809538 161.107374 
C 505.540804 159.83864 503.81979 159.125772 502.025529 159.125772 
C 500.231269 159.125772 498.510254 159.83864 497.24152 161.107374 
C 495.972786 162.376108 495.259919 164.097122 495.259919 165.891383 
C 495.259919 167.685643 495.972786 169.406658 497.24152 170.675392 
C 498.510254 171.944126 500.231269 172.656993 502.025529 172.656993 
z
" style="fill:#fee8d2;stroke:#fee8d2;"/>
    <path clip-path="url(#pfb1ee4e5ed)" d="M 137.344275 135.840429 
C 139.22743 135.840429 141.033709 135.092243 142.365301 133.760652 
C 143.696892 132.42906 144.445078 130.622781 144.445078 128.739626 
C 144.445078 126.856471 143.696892 125.050191 142.365301 123.7186 
C 141.033709 122.387008 139.22743 121.638823 137.344275 121.638823 
C 135.46112 121.638823 133.65484 122.387008 132.323249 123.7186 
C 130.991657 125.050191 130.243472 126.856471 130.243472 128.739626 
C 130.243472 130.622781 130.991657 132.42906 132.323249 133.760652 
C 133.65484 135.092243 135.46112 135.840429 137.344275 135.840429 
z
" style="fill:#fee0c1;stroke:#fee0c1;"/>
    <path clip-path="url(#pfb1ee4e5ed)" d="M 469.083746 135.616544 
C 470.907441 135.616544 472.656688 134.891983 473.946235 133.602435 
C 475.235783 132.312888 475.960344 130.563641 475.960344 128.739946 
C 475.960344 126.916251 475.235783 125.167005 473.946235 123.877457 
C 472.656688 122.58791 470.907441 121.863349 469.083746 121.863349 
C 467.260051 121.863349 465.510805 122.58791 464.221257 123.877457 
C 462.93171 125.167005 462.207149 126.916251 462.207149 128.739946 
C 462.207149 130.563641 462.93171 132.312888 464.221257 133.602435 
C 465.510805 134.891983 467.260051 135.616544 469.083746 135.616544 
z
" style="fill:#fee6ce;stroke:#fee6ce;"/>
    <path clip-path="url(#pfb1ee4e5ed)" d="M 502.025549 136.97421 
C 504.209302 136.97421 506.303907 136.106596 507.848053 134.56245 
C 509.392199 133.018304 510.259813 130.923699 510.259813 128.739946 
C 510.259813 126.556194 509.392199 124.461589 507.848053 122.917443 
C 506.303907 121.373297 504.209302 120.505683 502.025549 120.505683 
C 499.841797 120.505683 497.747192 121.373297 496.203046 122.917443 
C 494.6589 124.461589 493.791286 126.556194 493.791286 128.739946 
C 493.791286 130.923699 494.6589 133.018304 496.203046 134.56245 
C 497.747192 136.106596 499.841797 136.97421 502.025549 136.97421 
z
" style="fill:#fdb373;stroke:#fdb373;"/>
    <path clip-path="url(#pfb1ee4e5ed)" d="M 534.967353 135.505945 
C 536.761716 135.505945 538.482829 134.793037 539.751636 133.52423 
C 541.020443 132.255423 541.733351 130.53431 541.733351 128.739946 
C 541.733351 126.945583 541.020443 125.22447 539.751636 123.955663 
C 538.482829 122.686856 536.761716 121.973948 534.967353 121.973948 
C 533.172989 121.973948 531.451876 122.686856 530.183069 123.955663 
C 528.914262 125.22447 528.201354 126.945583 528.201354 128.739946 
C 528.201354 130.53431 528.914262 132.255423 530.183069 133.52423 
C 531.451876 134.793037 533.172989 135.505945 534.967353 135.505945 
z
" style="fill:#fee8d2;stroke:#fee8d2;"/>
    <path clip-path="url(#pfb1ee4e5ed)" d="M 137.344295 99.148938 
C 139.349429 99.148938 141.272707 98.35229 142.690551 96.934446 
C 144.108395 95.516602 144.905043 93.593323 144.905043 91.588189 
C 144.905043 89.583056 144.108395 87.659777 142.690551 86.241933 
C 141.272707 84.824089 139.349429 84.027441 137.344295 84.027441 
C 135.339161 84.027441 133.415882 84.824089 131.998038 86.241933 
C 130.580195 87.659777 129.783546 89.583056 129.783546 91.588189 
C 129.783546 93.593323 130.580195 95.516602 131.998038 96.934446 
C 133.415882 98.35229 135.339161 99.148938 137.344295 99.148938 
z
" style="fill:#fdd3a7;stroke:#fdd3a7;"/>
    <path clip-path="url(#pfb1ee4e5ed)" d="M 502.025569 98.46467 
C 503.849148 98.46467 505.598284 97.740154 506.887749 96.450689 
C 508.177213 95.161224 508.901729 93.412089 508.901729 91.58851 
C 508.901729 89.764931 508.177213 88.015796 506.887749 86.726331 
C 505.598284 85.436866 503.849148 84.712351 502.025569 84.712351 
C 500.201991 84.712351 498.452855 85.436866 497.16339 86.726331 
C 495.873925 88.015796 495.14941 89.764931 495.14941 91.58851 
C 495.14941 93.412089 495.873925 95.161224 497.16339 96.450689 
C 498.452855 97.740154 500.201991 98.46467 502.025569 98.46467 
z
" style="fill:#fee6cf;stroke:#fee6cf;"/>
    <path clip-path="url(#pfb1ee4e5ed)" d="M 534.967373 102.098179 
C 537.754569 102.098179 540.427985 100.990814 542.398831 99.019968 
C 544.369677 97.049123 545.477042 94.375707 545.477042 91.58851 
C 545.477042 88.801313 544.369677 86.127898 542.398831 84.157052 
C 540.427985 82.186206 537.754569 81.078841 534.967373 81.078841 
C 532.180176 81.078841 529.50676 82.186206 527.535914 84.157052 
C 525.565069 86.127898 524.457703 88.801313 524.457703 91.58851 
C 524.457703 94.375707 525.565069 97.049123 527.535914 99.019968 
C 529.50676 100.990814 532.180176 102.098179 534.967373 102.098179 
z
" style="fill:#b53b02;stroke:#b53b02;"/>
    <path clip-path="url(#pfb1ee4e5ed)" d="M 567.909176 98.600178 
C 569.768692 98.600178 571.552297 97.861384 572.867173 96.546508 
C 574.18205 95.231632 574.920843 93.448026 574.920843 91.58851 
C 574.920843 89.728994 574.18205 87.945389 572.867173 86.630512 
C 571.552297 85.315636 569.768692 84.576843 567.909176 84.576843 
C 566.04966 84.576843 564.266054 85.315636 562.951178 86.630512 
C 561.636302 87.945389 560.897508 89.728994 560.897508 91.58851 
C 560.897508 93.448026 561.636302 95.231632 562.951178 96.546508 
C 564.266054 97.861384 566.04966 98.600178 567.909176 98.600178 
z
" style="fill:#fee2c7;stroke:#fee2c7;"/>
    <path clip-path="url(#pfb1ee4e5ed)" d="M 600.850979 98.119556 
C 602.583032 98.119556 604.244378 97.431403 605.469125 96.206657 
C 606.693872 94.98191 607.382024 93.320564 607.382024 91.58851 
C 607.382024 89.856457 606.693872 88.19511 605.469125 86.970364 
C 604.244378 85.745617 602.583032 85.057465 600.850979 85.057465 
C 599.118925 85.057465 597.457579 85.745617 596.232832 86.970364 
C 595.008085 88.19511 594.319933 89.856457 594.319933 91.58851 
C 594.319933 93.320564 595.008085 94.98191 596.232832 96.206657 
C 597.457579 97.431403 599.118925 98.119556 600.850979 98.119556 
z
" style="fill:#feeddb;stroke:#feeddb;"/>
   </g>
   <g id="line2d_11">
    <defs>
     <path d="M -2.5 0 
L 2.5 0 
M 0 2.5 
L 0 -2.5 
" id="m66e876d07b" style="stroke:#0000ff;"/>
    </defs>
    <g clip-path="url(#pfb1ee4e5ed)">
     <use style="fill:#0000ff;stroke:#0000ff;" x="403.2" xlink:href="#m66e876d07b" y="388.8"/>
    </g>
   </g>
   <g id="patch_3">
    <path d="M 108 720.9 
L 108 56.7 
" style="fill:none;stroke:#000000;stroke-linecap:square;stroke-linejoin:miter;stroke-width:0.8;"/>
   </g>
   <g id="patch_4">
    <path d="M 698.4 720.9 
L 698.4 56.7 
" style="fill:none;stroke:#000000;stroke-linecap:square;stroke-linejoin:miter;stroke-width:0.8;"/>
   </g>
   <g id="patch_5">
    <path d="M 108 720.9 
L 698.4 720.9 
" style="fill:none;stroke:#000000;stroke-linecap:square;stroke-linejoin:miter;stroke-width:0.8;"/>
   </g>
   <g id="patch_6">
    <path d="M 108 56.7 
L 698.4 56.7 
" style="fill:none;stroke:#000000;stroke-linecap:square;stroke-linejoin:miter;stroke-width:0.8;"/>
   </g>
   <g id="text_13">
    <!-- (4,-8,0) -->
    <g style="fill:#796eb2;" transform="translate(507.326036 679.36949)scale(0.15 -0.15)">
     <defs>
      <path d="M 31 75.875 
Q 24.46875 64.65625 21.28125 53.65625 
Q 18.109375 42.671875 18.109375 31.390625 
Q 18.109375 20.125 21.3125 9.0625 
Q 24.515625 -2 31 -13.1875 
L 23.1875 -13.1875 
Q 15.875 -1.703125 12.234375 9.375 
Q 8.59375 20.453125 8.59375 31.390625 
Q 8.59375 42.28125 12.203125 53.3125 
Q 15.828125 64.359375 23.1875 75.875 
z
" id="DejaVuSans-40"/>
      <path d="M 37.796875 64.3125 
L 12.890625 25.390625 
L 37.796875 25.390625 
z
M 35.203125 72.90625 
L 47.609375 72.90625 
L 47.609375 25.390625 
L 58.015625 25.390625 
L 58.015625 17.1875 
L 47.609375 17.1875 
L 47.609375 0 
L 37.796875 0 
L 37.796875 17.1875 
L 4.890625 17.1875 
L 4.890625 26.703125 
z
" id="DejaVuSans-52"/>
      <path d="M 11.71875 12.40625 
L 22.015625 12.40625 
L 22.015625 4 
L 14.015625 -11.625 
L 7.71875 -11.625 
L 11.71875 4 
z
" id="DejaVuSans-44"/>
      <path d="M 4.890625 31.390625 
L 31.203125 31.390625 
L 31.203125 23.390625 
L 4.890625 23.390625 
z
" id="DejaVuSans-45"/>
      <path d="M 31.78125 34.625 
Q 24.75 34.625 20.71875 30.859375 
Q 16.703125 27.09375 16.703125 20.515625 
Q 16.703125 13.921875 20.71875 10.15625 
Q 24.75 6.390625 31.78125 6.390625 
Q 38.8125 6.390625 42.859375 10.171875 
Q 46.921875 13.96875 46.921875 20.515625 
Q 46.921875 27.09375 42.890625 30.859375 
Q 38.875 34.625 31.78125 34.625 
z
M 21.921875 38.8125 
Q 15.578125 40.375 12.03125 44.71875 
Q 8.5 49.078125 8.5 55.328125 
Q 8.5 64.0625 14.71875 69.140625 
Q 20.953125 74.21875 31.78125 74.21875 
Q 42.671875 74.21875 48.875 69.140625 
Q 55.078125 64.0625 55.078125 55.328125 
Q 55.078125 49.078125 51.53125 44.71875 
Q 48 40.375 41.703125 38.8125 
Q 48.828125 37.15625 52.796875 32.3125 
Q 56.78125 27.484375 56.78125 20.515625 
Q 56.78125 9.90625 50.3125 4.234375 
Q 43.84375 -1.421875 31.78125 -1.421875 
Q 19.734375 -1.421875 13.25 4.234375 
Q 6.78125 9.90625 6.78125 20.515625 
Q 6.78125 27.484375 10.78125 32.3125 
Q 14.796875 37.15625 21.921875 38.8125 
z
M 18.3125 54.390625 
Q 18.3125 48.734375 21.84375 45.5625 
Q 25.390625 42.390625 31.78125 42.390625 
Q 38.140625 42.390625 41.71875 45.5625 
Q 45.3125 48.734375 45.3125 54.390625 
Q 45.3125 60.0625 41.71875 63.234375 
Q 38.140625 66.40625 31.78125 66.40625 
Q 25.390625 66.40625 21.84375 63.234375 
Q 18.3125 60.0625 18.3125 54.390625 
z
" id="DejaVuSans-56"/>
      <path d="M 8.015625 75.875 
L 15.828125 75.875 
Q 23.140625 64.359375 26.78125 53.3125 
Q 30.421875 42.28125 30.421875 31.390625 
Q 30.421875 20.453125 26.78125 9.375 
Q 23.140625 -1.703125 15.828125 -13.1875 
L 8.015625 -13.1875 
Q 14.5 -2 17.703125 9.0625 
Q 20.90625 20.125 20.90625 31.390625 
Q 20.90625 42.671875 17.703125 53.65625 
Q 14.5 64.65625 8.015625 75.875 
z
" id="DejaVuSans-41"/>
     </defs>
     <use xlink:href="#DejaVuSans-40"/>
     <use x="39.013672" xlink:href="#DejaVuSans-52"/>
     <use x="102.636719" xlink:href="#DejaVuSans-44"/>
     <use x="134.423828" xlink:href="#DejaVuSans-45"/>
     <use x="170.507812" xlink:href="#DejaVuSans-56"/>
     <use x="234.130859" xlink:href="#DejaVuSans-44"/>
     <use x="265.917969" xlink:href="#DejaVuSans-48"/>
     <use x="329.541016" xlink:href="#DejaVuSans-41"/>
    </g>
   </g>
   <g id="text_14">
    <!-- (2,-6,0) -->
    <g style="fill:#796eb2;" transform="translate(441.44247 605.066617)scale(0.15 -0.15)">
     <defs>
      <path d="M 33.015625 40.375 
Q 26.375 40.375 22.484375 35.828125 
Q 18.609375 31.296875 18.609375 23.390625 
Q 18.609375 15.53125 22.484375 10.953125 
Q 26.375 6.390625 33.015625 6.390625 
Q 39.65625 6.390625 43.53125 10.953125 
Q 47.40625 15.53125 47.40625 23.390625 
Q 47.40625 31.296875 43.53125 35.828125 
Q 39.65625 40.375 33.015625 40.375 
z
M 52.59375 71.296875 
L 52.59375 62.3125 
Q 48.875 64.0625 45.09375 64.984375 
Q 41.3125 65.921875 37.59375 65.921875 
Q 27.828125 65.921875 22.671875 59.328125 
Q 17.53125 52.734375 16.796875 39.40625 
Q 19.671875 43.65625 24.015625 45.921875 
Q 28.375 48.1875 33.59375 48.1875 
Q 44.578125 48.1875 50.953125 41.515625 
Q 57.328125 34.859375 57.328125 23.390625 
Q 57.328125 12.15625 50.6875 5.359375 
Q 44.046875 -1.421875 33.015625 -1.421875 
Q 20.359375 -1.421875 13.671875 8.265625 
Q 6.984375 17.96875 6.984375 36.375 
Q 6.984375 53.65625 15.1875 63.9375 
Q 23.390625 74.21875 37.203125 74.21875 
Q 40.921875 74.21875 44.703125 73.484375 
Q 48.484375 72.75 52.59375 71.296875 
z
" id="DejaVuSans-54"/>
     </defs>
     <use xlink:href="#DejaVuSans-40"/>
     <use x="39.013672" xlink:href="#DejaVuSans-50"/>
     <use x="102.636719" xlink:href="#DejaVuSans-44"/>
     <use x="134.423828" xlink:href="#DejaVuSans-45"/>
     <use x="170.507812" xlink:href="#DejaVuSans-54"/>
     <use x="234.130859" xlink:href="#DejaVuSans-44"/>
     <use x="265.917969" xlink:href="#DejaVuSans-48"/>
     <use x="329.541016" xlink:href="#DejaVuSans-41"/>
    </g>
   </g>
   <g id="text_15">
    <!-- (2,6,0) -->
    <g style="fill:#796eb2;" transform="translate(444.14857 159.249383)scale(0.15 -0.15)">
     <use xlink:href="#DejaVuSans-40"/>
     <use x="39.013672" xlink:href="#DejaVuSans-50"/>
     <use x="102.636719" xlink:href="#DejaVuSans-44"/>
     <use x="134.423828" xlink:href="#DejaVuSans-54"/>
     <use x="198.046875" xlink:href="#DejaVuSans-44"/>
     <use x="229.833984" xlink:href="#DejaVuSans-48"/>
     <use x="293.457031" xlink:href="#DejaVuSans-41"/>
    </g>
   </g>
   <g id="text_16">
    <!-- (4,8,0) -->
    <g style="fill:#796eb2;" transform="translate(510.032216 84.94651)scale(0.15 -0.15)">
     <use xlink:href="#DejaVuSans-40"/>
     <use x="39.013672" xlink:href="#DejaVuSans-52"/>
     <use x="102.636719" xlink:href="#DejaVuSans-44"/>
     <use x="134.423828" xlink:href="#DejaVuSans-56"/>
     <use x="198.046875" xlink:href="#DejaVuSans-44"/>
     <use x="229.833984" xlink:href="#DejaVuSans-48"/>
     <use x="293.457031" xlink:href="#DejaVuSans-41"/>
    </g>
   </g>
  </g>
 </g>
 <defs>
  <clipPath id="pfb1ee4e5ed">
   <rect height="664.2" width="590.4" x="108" y="56.7"/>
  </clipPath>
 </defs>
</svg>
